<svg width="824" height="249" viewBox="0 0 824 249" fill="none" xmlns="http://www.w3.org/2000/svg">
<path d="M0.903764 30.8182H1.97763C2.00888 31.1136 2.10973 31.3636 2.28018 31.5682C2.45348 31.7699 2.67791 31.9233 2.95348 32.0284C3.22905 32.1307 3.53445 32.1818 3.86967 32.1818C4.23331 32.1818 4.56001 32.1207 4.84979 31.9986C5.13956 31.8764 5.36967 31.6946 5.54013 31.4531C5.71058 31.2088 5.79581 30.9062 5.79581 30.5455C5.79581 30.2301 5.72195 29.9375 5.57422 29.6676C5.42649 29.3949 5.18928 29.1747 4.86257 29.0071C4.53587 28.8395 4.10263 28.7557 3.56286 28.7557H2.86399V27.9034L5.04581 25.2784V25.2102H1.3299V24.2727H6.49467V25.0398L4.15945 27.8693V27.9375C4.53445 27.9545 4.88388 28.0312 5.20774 28.1676C5.53445 28.304 5.81854 28.4886 6.06001 28.7216C6.30433 28.9545 6.49467 29.2259 6.63104 29.5355C6.7674 29.8452 6.83558 30.1818 6.83558 30.5455C6.83558 31.0426 6.70774 31.4858 6.45206 31.875C6.19922 32.2614 5.84837 32.5653 5.3995 32.7869C4.95348 33.0085 4.43786 33.1193 3.85263 33.1193C3.33558 33.1193 2.85973 33.0284 2.42507 32.8466C1.99041 32.6648 1.63672 32.402 1.36399 32.0582C1.09126 31.7145 0.937855 31.3011 0.903764 30.8182ZM11.4219 33.1193C10.7798 33.1193 10.233 32.9446 9.78125 32.5952C9.32955 32.2429 8.98438 31.733 8.74574 31.0653C8.5071 30.3949 8.38778 29.5852 8.38778 28.6364C8.38778 27.6932 8.5071 26.8878 8.74574 26.2202C8.98722 25.5497 9.33381 25.0384 9.78551 24.6861C10.2401 24.331 10.7855 24.1534 11.4219 24.1534C12.0582 24.1534 12.6023 24.331 13.054 24.6861C13.5085 25.0384 13.8551 25.5497 14.0938 26.2202C14.3352 26.8878 14.456 27.6932 14.456 28.6364C14.456 29.5852 14.3366 30.3949 14.098 31.0653C13.8594 31.733 13.5142 32.2429 13.0625 32.5952C12.6108 32.9446 12.0639 33.1193 11.4219 33.1193ZM11.4219 32.1818C12.0582 32.1818 12.5526 31.875 12.9048 31.2614C13.2571 30.6477 13.4332 29.7727 13.4332 28.6364C13.4332 27.8807 13.3523 27.2372 13.1903 26.706C13.0313 26.1747 12.8011 25.7699 12.5 25.4915C12.2017 25.2131 11.8423 25.0739 11.4219 25.0739C10.7912 25.0739 10.2983 25.3849 9.94318 26.0071C9.58807 26.6264 9.41051 27.5028 9.41051 28.6364C9.41051 29.392 9.49006 30.0341 9.64915 30.5625C9.80824 31.0909 10.0369 31.4929 10.3352 31.7685C10.6364 32.044 10.9986 32.1818 11.4219 32.1818ZM16.2287 33V24.2727H17.2855V28.6023H17.3878L21.3082 24.2727H22.6889L19.0241 28.2102L22.6889 33H21.4105L18.3764 28.9432L17.2855 30.1705V33H16.2287Z" fill="#1C1C1C" fill-opacity="0.4"/>
<path d="M1.30966 91V90.233L4.19034 87.0795C4.52841 86.7102 4.80682 86.3892 5.02557 86.1165C5.24432 85.8409 5.40625 85.5824 5.51136 85.3409C5.61932 85.0966 5.6733 84.8409 5.6733 84.5739C5.6733 84.267 5.59943 84.0014 5.4517 83.777C5.30682 83.5526 5.10795 83.3793 4.85511 83.2571C4.60227 83.1349 4.31818 83.0739 4.00284 83.0739C3.66761 83.0739 3.375 83.1435 3.125 83.2827C2.87784 83.419 2.68608 83.6108 2.54972 83.858C2.41619 84.1051 2.34943 84.3949 2.34943 84.7273H1.34375C1.34375 84.2159 1.46165 83.767 1.69744 83.3807C1.93324 82.9943 2.25426 82.6932 2.66051 82.4773C3.0696 82.2614 3.52841 82.1534 4.03693 82.1534C4.5483 82.1534 5.00142 82.2614 5.39631 82.4773C5.79119 82.6932 6.10085 82.9844 6.32528 83.3509C6.54972 83.7173 6.66193 84.125 6.66193 84.5739C6.66193 84.8949 6.60369 85.2088 6.48722 85.5156C6.37358 85.8196 6.17472 86.1591 5.89062 86.5341C5.60938 86.9062 5.21875 87.3608 4.71875 87.8977L2.75852 89.9943V90.0625H6.81534V91H1.30966ZM11.4219 91.1193C10.7798 91.1193 10.233 90.9446 9.78125 90.5952C9.32955 90.2429 8.98438 89.733 8.74574 89.0653C8.5071 88.3949 8.38778 87.5852 8.38778 86.6364C8.38778 85.6932 8.5071 84.8878 8.74574 84.2202C8.98722 83.5497 9.33381 83.0384 9.78551 82.6861C10.2401 82.331 10.7855 82.1534 11.4219 82.1534C12.0582 82.1534 12.6023 82.331 13.054 82.6861C13.5085 83.0384 13.8551 83.5497 14.0938 84.2202C14.3352 84.8878 14.456 85.6932 14.456 86.6364C14.456 87.5852 14.3366 88.3949 14.098 89.0653C13.8594 89.733 13.5142 90.2429 13.0625 90.5952C12.6108 90.9446 12.0639 91.1193 11.4219 91.1193ZM11.4219 90.1818C12.0582 90.1818 12.5526 89.875 12.9048 89.2614C13.2571 88.6477 13.4332 87.7727 13.4332 86.6364C13.4332 85.8807 13.3523 85.2372 13.1903 84.706C13.0313 84.1747 12.8011 83.7699 12.5 83.4915C12.2017 83.2131 11.8423 83.0739 11.4219 83.0739C10.7912 83.0739 10.2983 83.3849 9.94318 84.0071C9.58807 84.6264 9.41051 85.5028 9.41051 86.6364C9.41051 87.392 9.49006 88.0341 9.64915 88.5625C9.80824 89.0909 10.0369 89.4929 10.3352 89.7685C10.6364 90.044 10.9986 90.1818 11.4219 90.1818ZM16.2287 91V82.2727H17.2855V86.6023H17.3878L21.3082 82.2727H22.6889L19.0241 86.2102L22.6889 91H21.4105L18.3764 86.9432L17.2855 88.1705V91H16.2287Z" fill="#1C1C1C" fill-opacity="0.4"/>
<path d="M6.07386 140.273V149H5.01705V141.807H4.94886C4.90909 141.886 4.80682 141.977 4.64205 142.08C4.47727 142.179 4.2642 142.267 4.00284 142.344C3.74148 142.418 3.44318 142.455 3.10795 142.455V141.568C3.44602 141.568 3.73864 141.507 3.9858 141.385C4.23295 141.263 4.43892 141.119 4.60369 140.955C4.77131 140.79 4.89773 140.641 4.98295 140.507C5.07102 140.374 5.12216 140.295 5.13636 140.273H6.07386ZM11.4219 149.119C10.7798 149.119 10.233 148.945 9.78125 148.595C9.32955 148.243 8.98438 147.733 8.74574 147.065C8.5071 146.395 8.38778 145.585 8.38778 144.636C8.38778 143.693 8.5071 142.888 8.74574 142.22C8.98722 141.55 9.33381 141.038 9.78551 140.686C10.2401 140.331 10.7855 140.153 11.4219 140.153C12.0582 140.153 12.6023 140.331 13.054 140.686C13.5085 141.038 13.8551 141.55 14.0938 142.22C14.3352 142.888 14.456 143.693 14.456 144.636C14.456 145.585 14.3366 146.395 14.098 147.065C13.8594 147.733 13.5142 148.243 13.0625 148.595C12.6108 148.945 12.0639 149.119 11.4219 149.119ZM11.4219 148.182C12.0582 148.182 12.5526 147.875 12.9048 147.261C13.2571 146.648 13.4332 145.773 13.4332 144.636C13.4332 143.881 13.3523 143.237 13.1903 142.706C13.0313 142.175 12.8011 141.77 12.5 141.491C12.2017 141.213 11.8423 141.074 11.4219 141.074C10.7912 141.074 10.2983 141.385 9.94318 142.007C9.58807 142.626 9.41051 143.503 9.41051 144.636C9.41051 145.392 9.49006 146.034 9.64915 146.562C9.80824 147.091 10.0369 147.493 10.3352 147.768C10.6364 148.044 10.9986 148.182 11.4219 148.182ZM16.2287 149V140.273H17.2855V144.602H17.3878L21.3082 140.273H22.6889L19.0241 144.21L22.6889 149H21.4105L18.3764 144.943L17.2855 146.17V149H16.2287Z" fill="#1C1C1C" fill-opacity="0.4"/>
<path d="M19.25 207.119C18.608 207.119 18.0611 206.945 17.6094 206.595C17.1577 206.243 16.8125 205.733 16.5739 205.065C16.3352 204.395 16.2159 203.585 16.2159 202.636C16.2159 201.693 16.3352 200.888 16.5739 200.22C16.8153 199.55 17.1619 199.038 17.6136 198.686C18.0682 198.331 18.6136 198.153 19.25 198.153C19.8864 198.153 20.4304 198.331 20.8821 198.686C21.3366 199.038 21.6832 199.55 21.9219 200.22C22.1634 200.888 22.2841 201.693 22.2841 202.636C22.2841 203.585 22.1648 204.395 21.9261 205.065C21.6875 205.733 21.3423 206.243 20.8906 206.595C20.4389 206.945 19.892 207.119 19.25 207.119ZM19.25 206.182C19.8864 206.182 20.3807 205.875 20.733 205.261C21.0852 204.648 21.2614 203.773 21.2614 202.636C21.2614 201.881 21.1804 201.237 21.0185 200.706C20.8594 200.175 20.6293 199.77 20.3281 199.491C20.0298 199.213 19.6705 199.074 19.25 199.074C18.6193 199.074 18.1264 199.385 17.7713 200.007C17.4162 200.626 17.2386 201.503 17.2386 202.636C17.2386 203.392 17.3182 204.034 17.4773 204.562C17.6364 205.091 17.8651 205.493 18.1634 205.768C18.4645 206.044 18.8267 206.182 19.25 206.182Z" fill="#1C1C1C" fill-opacity="0.4"/>
<mask id="mask0_33_2411" style="mask-type:alpha" maskUnits="userSpaceOnUse" x="39" y="1" width="785" height="232">
<rect x="39" y="1" width="785" height="232" fill="black"/>
</mask>
<g mask="url(#mask0_33_2411)">
<path d="M39 175.967L91.3416 131.249C95.1267 128.015 99.9818 126.309 104.958 126.464L163.477 128.294L228.147 132.196C231.892 132.422 235.625 131.591 238.919 129.796L323.498 83.726C327.955 81.2984 333.524 82.5942 336.451 86.7402L385.046 155.568C388.552 160.535 394.127 163.637 400.196 163.998L474.787 168.434C480.531 168.776 486.145 166.627 490.192 162.536L528.882 123.429C533.933 118.324 541.332 116.318 548.269 118.174L602.449 132.671C612.609 135.389 623.138 129.774 626.542 119.823L642.557 73.0001C645.181 65.3272 652.179 59.9985 660.274 59.509L733.344 55.0904C735.183 54.9792 736.998 54.6145 738.737 54.0065L824 24.2" stroke="#F6C954" stroke-linecap="round" stroke-dasharray="2 4"/>
</g>
<mask id="mask1_33_2411" style="mask-type:alpha" maskUnits="userSpaceOnUse" x="39" y="1" width="785" height="232">
<rect x="39" y="1" width="785" height="232" fill="black"/>
</mask>
<g mask="url(#mask1_33_2411)">
<mask id="mask2_33_2411" style="mask-type:alpha" maskUnits="userSpaceOnUse" x="39" y="33" width="785" height="200">
<path d="M83.1143 123.911L39 137.142V233H824V65.8737L771.123 70.9893C768.011 71.2904 765.013 72.317 762.369 73.9867L720.527 100.414C713.823 104.648 705.249 104.522 698.673 100.091L660.749 74.5423C652.679 69.1053 642.473 67.9204 633.371 71.364L598.731 84.4705C592.13 86.9678 584.682 84.5265 580.84 78.6069L555.679 39.8367C550.465 31.8028 539.16 30.6465 532.428 37.4585L517.704 52.3565C509.25 60.9098 497.398 65.2061 485.427 64.0556L441.584 59.842C434.846 59.1944 428.237 61.9996 424.021 67.2967L383.37 118.38C379.24 123.571 372.804 126.376 366.189 125.868L299.718 120.762C290.183 120.029 280.702 122.737 272.992 128.394L253.816 142.463C242.364 150.866 228.881 156.068 214.753 157.534L177.618 161.39C174.043 161.761 170.534 162.612 167.185 163.921L149.885 170.684C141.081 174.126 131.069 170.934 125.882 163.03L105.581 132.095C100.726 124.698 91.5889 121.369 83.1143 123.911Z" fill="url(#paint0_radial_33_2411)"/>
</mask>
<g mask="url(#mask2_33_2411)">
<path opacity="0.6" d="M83.1143 123.911L39 137.142V233H824V65.8737L771.123 70.9893C768.011 71.2904 765.013 72.317 762.369 73.9867L720.527 100.414C713.823 104.648 705.249 104.522 698.673 100.091L660.749 74.5423C652.679 69.1053 642.473 67.9204 633.371 71.364L598.73 84.4705C592.13 86.9678 584.682 84.5265 580.84 78.6069L555.679 39.8367C550.465 31.8028 539.16 30.6465 532.428 37.4585L517.704 52.3565C509.25 60.9098 497.398 65.2061 485.427 64.0556L441.584 59.842C434.846 59.1944 428.237 61.9996 424.021 67.2967L383.37 118.38C379.24 123.571 372.804 126.376 366.189 125.868L299.718 120.762C290.183 120.029 280.702 122.737 272.992 128.394L253.816 142.463C242.364 150.866 228.881 156.068 214.753 157.534L177.618 161.39C174.043 161.761 170.534 162.612 167.185 163.921L149.885 170.684C141.081 174.126 131.069 170.934 125.882 163.03L105.581 132.095C100.726 124.698 91.5889 121.369 83.1143 123.911Z" fill="#3BBE9B"/>
</g>
<path d="M39 136.681L74.6075 126.045C82.7856 123.602 86.8747 122.38 90.7408 122.742C94.1537 123.061 97.4273 124.252 100.247 126.201C103.442 128.408 105.79 131.972 110.486 139.099L120.55 154.372C125.625 162.073 128.162 165.923 131.621 168.191C134.671 170.191 138.211 171.318 141.856 171.452C145.989 171.603 150.286 169.93 158.88 166.584L164.183 164.519C167.196 163.347 168.702 162.76 170.244 162.299C171.615 161.888 173.007 161.552 174.414 161.291C175.997 160.997 177.605 160.831 180.82 160.498L201.911 158.318C214.726 156.993 221.133 156.33 227.267 154.689C232.712 153.232 237.989 151.203 243.008 148.637C248.662 145.747 253.863 141.946 264.265 134.345L265.861 133.179C272.924 128.017 276.456 125.437 280.348 123.704C283.801 122.167 287.453 121.127 291.198 120.616C295.419 120.039 299.78 120.372 308.502 121.039L359.89 124.971C366.063 125.443 369.15 125.679 372.021 125.05C374.564 124.493 376.974 123.446 379.115 121.966C381.533 120.294 383.466 117.876 387.33 113.039L419.97 72.1911C423.92 67.2473 425.895 64.7754 428.372 63.0848C430.564 61.5883 433.032 60.543 435.632 60.01C438.569 59.4079 441.719 59.7093 448.018 60.3123L474.948 62.8899C485.27 63.8778 490.431 64.3718 495.343 63.6209C500.504 62.8317 505.461 61.0397 509.934 58.3458C514.19 55.7826 517.842 52.1025 525.146 44.7423V44.7423C531.808 38.0284 535.14 34.6715 538.793 33.5763C542.609 32.4322 546.724 32.8535 550.229 34.7471C553.585 36.5598 556.167 40.5221 561.331 48.4467L576.895 72.331C580.651 78.0945 582.529 80.9763 585.1 82.6872C587.367 84.1963 590.003 85.0594 592.724 85.1839C595.809 85.3251 599.028 84.1123 605.465 81.6866L624.745 74.4217C633.218 71.2289 637.455 69.6326 641.753 69.3098C645.559 69.0239 649.385 69.467 653.025 70.6152C657.135 71.9118 660.895 74.4343 668.414 79.4792L692.228 95.4572C698.478 99.6505 701.603 101.747 704.991 102.595C707.985 103.344 711.113 103.391 714.128 102.73C717.539 101.982 720.724 99.9785 727.095 95.9712L759.97 75.2924C762.364 73.7865 763.561 73.0335 764.837 72.4609C765.971 71.9523 767.149 71.5504 768.356 71.2604C769.716 70.9338 771.124 70.7982 773.939 70.5269L824 65.7035" stroke="url(#paint1_linear_33_2411)" stroke-linecap="round"/>
<path d="M39 136.681L74.6075 126.045C82.7856 123.602 86.8747 122.38 90.7408 122.742C94.1537 123.061 97.4273 124.252 100.247 126.201C103.442 128.408 105.79 131.972 110.486 139.099L120.55 154.372C125.625 162.073 128.162 165.923 131.621 168.191C134.671 170.191 138.211 171.318 141.856 171.452C145.989 171.603 150.286 169.93 158.88 166.584L164.183 164.519C167.196 163.347 168.702 162.76 170.244 162.299C171.615 161.888 173.007 161.552 174.414 161.291C175.997 160.997 177.605 160.831 180.82 160.498L201.911 158.318C214.726 156.993 221.133 156.33 227.267 154.689C232.712 153.232 237.989 151.203 243.008 148.637C248.662 145.747 253.863 141.946 264.265 134.345L265.861 133.179C272.924 128.017 276.456 125.437 280.348 123.704C283.801 122.167 287.453 121.127 291.198 120.616C295.419 120.039 299.78 120.372 308.502 121.039L359.89 124.971C366.063 125.443 369.15 125.679 372.021 125.05C374.564 124.493 376.974 123.446 379.115 121.966C381.533 120.294 383.466 117.876 387.33 113.039L419.97 72.1911C423.92 67.2473 425.895 64.7754 428.372 63.0848C430.564 61.5883 433.032 60.543 435.632 60.01C438.569 59.4079 441.719 59.7093 448.018 60.3123L474.948 62.8899C485.27 63.8778 490.431 64.3718 495.343 63.6209C500.504 62.8317 505.461 61.0397 509.934 58.3458C514.19 55.7826 517.842 52.1025 525.146 44.7423V44.7423C531.808 38.0284 535.14 34.6715 538.793 33.5763C542.609 32.4322 546.724 32.8535 550.229 34.7471C553.585 36.5598 556.167 40.5221 561.331 48.4467L576.895 72.331C580.651 78.0945 582.529 80.9763 585.1 82.6872C587.367 84.1963 590.003 85.0594 592.724 85.1839C595.809 85.3251 599.028 84.1123 605.465 81.6866L624.745 74.4217C633.218 71.2289 637.455 69.6326 641.753 69.3098C645.559 69.0239 649.385 69.467 653.025 70.6152C657.135 71.9118 660.895 74.4343 668.414 79.4792L692.228 95.4572C698.478 99.6505 701.603 101.747 704.991 102.595C707.985 103.344 711.113 103.391 714.128 102.73C717.539 101.982 720.724 99.9785 727.095 95.9712L759.97 75.2924C762.364 73.7865 763.561 73.0335 764.837 72.4609C765.971 71.9523 767.149 71.5504 768.356 71.2604C769.716 70.9338 771.124 70.7982 773.939 70.5269L824 65.7035" stroke="#3BBE9B" stroke-linecap="round" style="mix-blend-mode:screen"/>
</g>
<path d="M89.3207 236.273H90.3775V242.511C90.3775 243.068 90.2753 243.541 90.0707 243.93C89.8662 244.32 89.5778 244.615 89.2057 244.817C88.8335 245.018 88.3946 245.119 87.8889 245.119C87.4116 245.119 86.9869 245.033 86.6148 244.859C86.2426 244.683 85.95 244.433 85.7369 244.109C85.5238 243.786 85.4173 243.401 85.4173 242.955H86.4571C86.4571 243.202 86.5182 243.418 86.6403 243.602C86.7653 243.784 86.9358 243.926 87.1517 244.028C87.3676 244.131 87.6133 244.182 87.8889 244.182C88.1929 244.182 88.4514 244.118 88.6645 243.99C88.8775 243.862 89.0395 243.675 89.1503 243.428C89.2639 243.178 89.3207 242.872 89.3207 242.511V236.273ZM94.2852 245.153C93.8704 245.153 93.494 245.075 93.1559 244.919C92.8179 244.76 92.5494 244.531 92.3505 244.233C92.1517 243.932 92.0523 243.568 92.0523 243.142C92.0523 242.767 92.1261 242.463 92.2738 242.23C92.4216 241.994 92.619 241.81 92.8662 241.676C93.1133 241.543 93.3861 241.443 93.6844 241.378C93.9855 241.31 94.288 241.256 94.592 241.216C94.9898 241.165 95.3122 241.126 95.5594 241.101C95.8094 241.072 95.9912 241.026 96.1048 240.96C96.2213 240.895 96.2795 240.781 96.2795 240.619V240.585C96.2795 240.165 96.1645 239.838 95.9344 239.605C95.7071 239.372 95.3619 239.256 94.8988 239.256C94.4187 239.256 94.0423 239.361 93.7696 239.571C93.4969 239.781 93.3051 240.006 93.1943 240.244L92.2398 239.903C92.4102 239.506 92.6375 239.196 92.9216 238.974C93.2085 238.75 93.521 238.594 93.8591 238.506C94.2 238.415 94.5352 238.369 94.8648 238.369C95.075 238.369 95.3165 238.395 95.5892 238.446C95.8648 238.494 96.1304 238.595 96.3861 238.749C96.6446 238.902 96.8591 239.134 97.0295 239.443C97.2 239.753 97.2852 240.168 97.2852 240.688V245H96.2795V244.114H96.2284C96.1602 244.256 96.0466 244.408 95.8875 244.57C95.7284 244.732 95.5167 244.869 95.2525 244.983C94.9883 245.097 94.6659 245.153 94.2852 245.153ZM94.4386 244.25C94.8363 244.25 95.1716 244.172 95.4443 244.016C95.7199 243.859 95.9273 243.658 96.0665 243.411C96.2085 243.163 96.2795 242.903 96.2795 242.631V241.71C96.2369 241.761 96.1432 241.808 95.9983 241.851C95.8562 241.891 95.6915 241.926 95.504 241.957C95.3193 241.986 95.1389 242.011 94.9628 242.034C94.7895 242.054 94.6488 242.071 94.5409 242.085C94.2795 242.119 94.0352 242.175 93.8079 242.251C93.5835 242.325 93.4017 242.437 93.2625 242.588C93.1261 242.736 93.0579 242.937 93.0579 243.193C93.0579 243.543 93.1872 243.807 93.4457 243.986C93.7071 244.162 94.038 244.25 94.4386 244.25ZM100.126 241.062V245H99.1208V238.455H100.092V239.477H100.178C100.331 239.145 100.564 238.878 100.876 238.676C101.189 238.472 101.592 238.369 102.087 238.369C102.53 238.369 102.918 238.46 103.25 238.642C103.582 238.821 103.841 239.094 104.026 239.46C104.21 239.824 104.303 240.284 104.303 240.841V245H103.297V240.909C103.297 240.395 103.163 239.994 102.896 239.707C102.629 239.418 102.263 239.273 101.797 239.273C101.476 239.273 101.189 239.342 100.936 239.482C100.686 239.621 100.489 239.824 100.344 240.091C100.199 240.358 100.126 240.682 100.126 241.062Z" fill="#1C1C1C" fill-opacity="0.4"/>
<path d="M197.771 245V236.273H203.004V237.21H198.828V240.159H202.612V241.097H198.828V245H197.771ZM206.942 245.136C206.311 245.136 205.767 244.997 205.309 244.719C204.855 244.438 204.504 244.045 204.257 243.543C204.013 243.037 203.89 242.449 203.89 241.778C203.89 241.108 204.013 240.517 204.257 240.006C204.504 239.491 204.848 239.091 205.288 238.804C205.731 238.514 206.248 238.369 206.839 238.369C207.18 238.369 207.517 238.426 207.849 238.54C208.182 238.653 208.484 238.838 208.757 239.094C209.03 239.347 209.247 239.682 209.409 240.099C209.571 240.517 209.652 241.031 209.652 241.642V242.068H204.606V241.199H208.629C208.629 240.83 208.555 240.5 208.407 240.21C208.263 239.92 208.055 239.692 207.785 239.524C207.518 239.357 207.203 239.273 206.839 239.273C206.439 239.273 206.092 239.372 205.8 239.571C205.51 239.767 205.287 240.023 205.13 240.338C204.974 240.653 204.896 240.991 204.896 241.352V241.932C204.896 242.426 204.981 242.845 205.152 243.189C205.325 243.53 205.565 243.79 205.872 243.969C206.179 244.145 206.535 244.233 206.942 244.233C207.206 244.233 207.444 244.196 207.657 244.122C207.873 244.045 208.059 243.932 208.216 243.781C208.372 243.628 208.493 243.437 208.578 243.21L209.55 243.483C209.447 243.812 209.275 244.102 209.034 244.352C208.792 244.599 208.494 244.793 208.139 244.932C207.784 245.068 207.385 245.136 206.942 245.136ZM211.318 245V236.273H212.324V239.494H212.409C212.483 239.381 212.585 239.236 212.716 239.06C212.849 238.881 213.04 238.722 213.287 238.582C213.537 238.44 213.875 238.369 214.301 238.369C214.852 238.369 215.338 238.507 215.758 238.783C216.179 239.058 216.507 239.449 216.743 239.955C216.978 240.46 217.096 241.057 217.096 241.744C217.096 242.438 216.978 243.038 216.743 243.547C216.507 244.053 216.18 244.445 215.763 244.723C215.345 244.999 214.863 245.136 214.318 245.136C213.898 245.136 213.561 245.067 213.308 244.928C213.055 244.786 212.861 244.625 212.724 244.446C212.588 244.264 212.483 244.114 212.409 243.994H212.29V245H211.318ZM212.307 241.727C212.307 242.222 212.379 242.658 212.524 243.036C212.669 243.411 212.88 243.705 213.159 243.918C213.437 244.128 213.778 244.233 214.182 244.233C214.602 244.233 214.953 244.122 215.234 243.901C215.518 243.676 215.731 243.375 215.873 242.997C216.018 242.616 216.091 242.193 216.091 241.727C216.091 241.267 216.02 240.852 215.878 240.483C215.738 240.111 215.527 239.817 215.243 239.601C214.961 239.382 214.608 239.273 214.182 239.273C213.773 239.273 213.429 239.376 213.15 239.584C212.872 239.788 212.662 240.075 212.52 240.445C212.378 240.811 212.307 241.239 212.307 241.727Z" fill="#1C1C1C" fill-opacity="0.4"/>
<path d="M309.463 236.273H310.724L313.69 243.517H313.792L316.758 236.273H318.02V245H317.031V238.369H316.946L314.218 245H313.264L310.537 238.369H310.451V245H309.463V236.273ZM321.928 245.153C321.514 245.153 321.137 245.075 320.799 244.919C320.461 244.76 320.193 244.531 319.994 244.233C319.795 243.932 319.695 243.568 319.695 243.142C319.695 242.767 319.769 242.463 319.917 242.23C320.065 241.994 320.262 241.81 320.509 241.676C320.756 241.543 321.029 241.443 321.327 241.378C321.629 241.31 321.931 241.256 322.235 241.216C322.633 241.165 322.955 241.126 323.202 241.101C323.452 241.072 323.634 241.026 323.748 240.96C323.864 240.895 323.923 240.781 323.923 240.619V240.585C323.923 240.165 323.808 239.838 323.577 239.605C323.35 239.372 323.005 239.256 322.542 239.256C322.062 239.256 321.685 239.361 321.413 239.571C321.14 239.781 320.948 240.006 320.837 240.244L319.883 239.903C320.053 239.506 320.281 239.196 320.565 238.974C320.852 238.75 321.164 238.594 321.502 238.506C321.843 238.415 322.178 238.369 322.508 238.369C322.718 238.369 322.96 238.395 323.232 238.446C323.508 238.494 323.773 238.595 324.029 238.749C324.288 238.902 324.502 239.134 324.673 239.443C324.843 239.753 324.928 240.168 324.928 240.688V245H323.923V244.114H323.872C323.803 244.256 323.69 244.408 323.531 244.57C323.372 244.732 323.16 244.869 322.896 244.983C322.631 245.097 322.309 245.153 321.928 245.153ZM322.082 244.25C322.479 244.25 322.815 244.172 323.087 244.016C323.363 243.859 323.57 243.658 323.71 243.411C323.852 243.163 323.923 242.903 323.923 242.631V241.71C323.88 241.761 323.786 241.808 323.641 241.851C323.499 241.891 323.335 241.926 323.147 241.957C322.962 241.986 322.782 242.011 322.606 242.034C322.433 242.054 322.292 242.071 322.184 242.085C321.923 242.119 321.678 242.175 321.451 242.251C321.227 242.325 321.045 242.437 320.906 242.588C320.769 242.736 320.701 242.937 320.701 243.193C320.701 243.543 320.83 243.807 321.089 243.986C321.35 244.162 321.681 244.25 322.082 244.25ZM326.764 245V238.455H327.736V239.443H327.804C327.923 239.119 328.139 238.857 328.451 238.655C328.764 238.453 329.116 238.352 329.508 238.352C329.582 238.352 329.674 238.354 329.785 238.357C329.896 238.359 329.98 238.364 330.037 238.369V239.392C330.003 239.384 329.924 239.371 329.802 239.354C329.683 239.334 329.557 239.324 329.423 239.324C329.105 239.324 328.821 239.391 328.571 239.524C328.324 239.655 328.128 239.837 327.983 240.07C327.841 240.3 327.77 240.562 327.77 240.858V245H326.764Z" fill="#1C1C1C" fill-opacity="0.4"/>
<path d="M422.971 245H421.863L425.068 236.273H426.159L429.363 245H428.256L425.648 237.653H425.579L422.971 245ZM423.381 241.591H427.846V242.528H423.381V241.591ZM430.586 247.455V238.455H431.558V239.494H431.677C431.751 239.381 431.854 239.236 431.984 239.06C432.118 238.881 432.308 238.722 432.555 238.582C432.805 238.44 433.143 238.369 433.569 238.369C434.121 238.369 434.606 238.507 435.027 238.783C435.447 239.058 435.775 239.449 436.011 239.955C436.247 240.46 436.365 241.057 436.365 241.744C436.365 242.438 436.247 243.038 436.011 243.547C435.775 244.053 435.449 244.445 435.031 244.723C434.613 244.999 434.132 245.136 433.586 245.136C433.166 245.136 432.829 245.067 432.577 244.928C432.324 244.786 432.129 244.625 431.993 244.446C431.856 244.264 431.751 244.114 431.677 243.994H431.592V247.455H430.586ZM431.575 241.727C431.575 242.222 431.648 242.658 431.792 243.036C431.937 243.411 432.149 243.705 432.427 243.918C432.706 244.128 433.047 244.233 433.45 244.233C433.871 244.233 434.221 244.122 434.503 243.901C434.787 243.676 435 243.375 435.142 242.997C435.287 242.616 435.359 242.193 435.359 241.727C435.359 241.267 435.288 240.852 435.146 240.483C435.007 240.111 434.795 239.817 434.511 239.601C434.23 239.382 433.876 239.273 433.45 239.273C433.041 239.273 432.697 239.376 432.419 239.584C432.14 239.788 431.93 240.075 431.788 240.445C431.646 240.811 431.575 241.239 431.575 241.727ZM437.899 245V238.455H438.871V239.443H438.939C439.058 239.119 439.274 238.857 439.586 238.655C439.899 238.453 440.251 238.352 440.643 238.352C440.717 238.352 440.809 238.354 440.92 238.357C441.031 238.359 441.115 238.364 441.172 238.369V239.392C441.138 239.384 441.059 239.371 440.937 239.354C440.818 239.334 440.692 239.324 440.558 239.324C440.24 239.324 439.956 239.391 439.706 239.524C439.459 239.655 439.263 239.837 439.118 240.07C438.976 240.3 438.905 240.562 438.905 240.858V245H437.899Z" fill="#1C1C1C" fill-opacity="0.4"/>
<path d="M532.758 236.273H534.02L536.986 243.517H537.088L540.054 236.273H541.315V245H540.326V238.369H540.241L537.514 245H536.559L533.832 238.369H533.747V245H532.758V236.273ZM545.224 245.153C544.809 245.153 544.433 245.075 544.095 244.919C543.756 244.76 543.488 244.531 543.289 244.233C543.09 243.932 542.991 243.568 542.991 243.142C542.991 242.767 543.065 242.463 543.212 242.23C543.36 241.994 543.558 241.81 543.805 241.676C544.052 241.543 544.325 241.443 544.623 241.378C544.924 241.31 545.227 241.256 545.531 241.216C545.928 241.165 546.251 241.126 546.498 241.101C546.748 241.072 546.93 241.026 547.043 240.96C547.16 240.895 547.218 240.781 547.218 240.619V240.585C547.218 240.165 547.103 239.838 546.873 239.605C546.646 239.372 546.301 239.256 545.837 239.256C545.357 239.256 544.981 239.361 544.708 239.571C544.435 239.781 544.244 240.006 544.133 240.244L543.178 239.903C543.349 239.506 543.576 239.196 543.86 238.974C544.147 238.75 544.46 238.594 544.798 238.506C545.139 238.415 545.474 238.369 545.803 238.369C546.014 238.369 546.255 238.395 546.528 238.446C546.803 238.494 547.069 238.595 547.325 238.749C547.583 238.902 547.798 239.134 547.968 239.443C548.139 239.753 548.224 240.168 548.224 240.688V245H547.218V244.114H547.167C547.099 244.256 546.985 244.408 546.826 244.57C546.667 244.732 546.455 244.869 546.191 244.983C545.927 245.097 545.604 245.153 545.224 245.153ZM545.377 244.25C545.775 244.25 546.11 244.172 546.383 244.016C546.658 243.859 546.866 243.658 547.005 243.411C547.147 243.163 547.218 242.903 547.218 242.631V241.71C547.176 241.761 547.082 241.808 546.937 241.851C546.795 241.891 546.63 241.926 546.443 241.957C546.258 241.986 546.077 242.011 545.901 242.034C545.728 242.054 545.587 242.071 545.479 242.085C545.218 242.119 544.974 242.175 544.747 242.251C544.522 242.325 544.34 242.437 544.201 242.588C544.065 242.736 543.997 242.937 543.997 243.193C543.997 243.543 544.126 243.807 544.384 243.986C544.646 244.162 544.977 244.25 545.377 244.25ZM550.473 247.455C550.302 247.455 550.15 247.44 550.017 247.412C549.883 247.386 549.791 247.361 549.74 247.335L549.995 246.449C550.24 246.511 550.456 246.534 550.643 246.517C550.831 246.5 550.997 246.416 551.142 246.266C551.289 246.118 551.424 245.878 551.547 245.545L551.734 245.034L549.314 238.455H550.405L552.211 243.67H552.28L554.086 238.455H555.177L552.399 245.955C552.274 246.293 552.119 246.572 551.934 246.794C551.75 247.018 551.535 247.185 551.291 247.293C551.049 247.401 550.777 247.455 550.473 247.455Z" fill="#1C1C1C" fill-opacity="0.4"/>
<path d="M649.929 236.273H650.986V242.511C650.986 243.068 650.884 243.541 650.679 243.93C650.475 244.32 650.187 244.615 649.814 244.817C649.442 245.018 649.003 245.119 648.498 245.119C648.02 245.119 647.596 245.033 647.224 244.859C646.851 244.683 646.559 244.433 646.346 244.109C646.133 243.786 646.026 243.401 646.026 242.955H647.066C647.066 243.202 647.127 243.418 647.249 243.602C647.374 243.784 647.545 243.926 647.76 244.028C647.976 244.131 648.222 244.182 648.498 244.182C648.802 244.182 649.06 244.118 649.273 243.99C649.486 243.862 649.648 243.675 649.759 243.428C649.873 243.178 649.929 242.872 649.929 242.511V236.273ZM657.093 242.324V238.455H658.099V245H657.093V243.892H657.025C656.871 244.224 656.633 244.507 656.309 244.74C655.985 244.97 655.576 245.085 655.081 245.085C654.672 245.085 654.309 244.996 653.991 244.817C653.672 244.635 653.422 244.362 653.241 243.999C653.059 243.632 652.968 243.17 652.968 242.614V238.455H653.974V242.545C653.974 243.023 654.107 243.403 654.374 243.688C654.644 243.972 654.988 244.114 655.405 244.114C655.655 244.114 655.91 244.05 656.168 243.922C656.429 243.794 656.648 243.598 656.824 243.334C657.003 243.07 657.093 242.733 657.093 242.324ZM660.946 241.062V245H659.94V238.455H660.912V239.477H660.997C661.151 239.145 661.384 238.878 661.696 238.676C662.009 238.472 662.412 238.369 662.906 238.369C663.35 238.369 663.737 238.46 664.07 238.642C664.402 238.821 664.661 239.094 664.845 239.46C665.03 239.824 665.122 240.284 665.122 240.841V245H664.117V240.909C664.117 240.395 663.983 239.994 663.716 239.707C663.449 239.418 663.083 239.273 662.617 239.273C662.296 239.273 662.009 239.342 661.756 239.482C661.506 239.621 661.308 239.824 661.163 240.091C661.019 240.358 660.946 240.682 660.946 241.062Z" fill="#1C1C1C" fill-opacity="0.4"/>
<path d="M764.158 236.273H765.215V242.511C765.215 243.068 765.113 243.541 764.908 243.93C764.704 244.32 764.415 244.615 764.043 244.817C763.671 245.018 763.232 245.119 762.726 245.119C762.249 245.119 761.824 245.033 761.452 244.859C761.08 244.683 760.787 244.433 760.574 244.109C760.361 243.786 760.255 243.401 760.255 242.955H761.295C761.295 243.202 761.356 243.418 761.478 243.602C761.603 243.784 761.773 243.926 761.989 244.028C762.205 244.131 762.451 244.182 762.726 244.182C763.03 244.182 763.289 244.118 763.502 243.99C763.715 243.862 763.877 243.675 763.988 243.428C764.101 243.178 764.158 242.872 764.158 242.511V236.273ZM771.322 242.324V238.455H772.327V245H771.322V243.892H771.253C771.1 244.224 770.861 244.507 770.537 244.74C770.214 244.97 769.805 245.085 769.31 245.085C768.901 245.085 768.537 244.996 768.219 244.817C767.901 244.635 767.651 244.362 767.469 243.999C767.287 243.632 767.197 243.17 767.197 242.614V238.455H768.202V242.545C768.202 243.023 768.336 243.403 768.603 243.688C768.873 243.972 769.216 244.114 769.634 244.114C769.884 244.114 770.138 244.05 770.397 243.922C770.658 243.794 770.877 243.598 771.053 243.334C771.232 243.07 771.322 242.733 771.322 242.324ZM775.175 236.273V245H774.169V236.273H775.175Z" fill="#1C1C1C" fill-opacity="0.4"/>
<defs>
<radialGradient id="paint0_radial_33_2411" cx="0" cy="0" r="1" gradientUnits="userSpaceOnUse" gradientTransform="translate(431.499 62.5552) rotate(90) scale(142.895 392.499)">
<stop stop-opacity="0.1"/>
<stop offset="1" stop-opacity="0"/>
</radialGradient>
<linearGradient id="paint1_linear_33_2411" x1="42.7003" y1="193.099" x2="824" y2="193.099" gradientUnits="userSpaceOnUse">
<stop stop-opacity="0.4"/>
<stop offset="1"/>
</linearGradient>
</defs>
</svg>
