<svg width="14" height="14" viewBox="0 0 14 14" fill="none" xmlns="http://www.w3.org/2000/svg">
<path d="M5.25 6.27688C5.32603 6.23298 5.38916 6.16985 5.43304 6.09381C5.47693 6.01778 5.50002 5.93154 5.5 5.84375V1.34375C5.49955 1.26403 5.48005 1.18558 5.44313 1.11493C5.4062 1.04428 5.35291 0.983489 5.28772 0.937619C5.22252 0.891748 5.1473 0.862132 5.06833 0.851239C4.98936 0.840346 4.90893 0.848493 4.83375 0.875C3.37436 1.39151 2.14707 2.41165 1.37251 3.75204C0.597948 5.09244 0.326911 6.66516 0.608125 8.1875C0.622701 8.26622 0.655968 8.34029 0.705129 8.40348C0.754289 8.46667 0.817904 8.51714 0.890625 8.55062C0.95616 8.58127 1.02765 8.59706 1.1 8.59688C1.18776 8.59691 1.27398 8.57384 1.35 8.53L5.25 6.27688ZM4.5 2.10125V5.555L1.5075 7.28187C1.5 7.1875 1.5 7.0925 1.5 7C1.50089 5.98648 1.78143 4.99285 2.31075 4.12853C2.84006 3.2642 3.59761 2.5627 4.5 2.10125ZM13.5 7C13.5005 8.42695 13.0314 9.81442 12.1651 10.9483C11.2988 12.0822 10.0835 12.8996 8.70659 13.2742C7.3297 13.6489 5.86778 13.56 4.54639 13.0214C3.22501 12.4827 2.11759 11.5242 1.395 10.2937C1.36132 10.2369 1.33923 10.174 1.33002 10.1085C1.3208 10.0431 1.32465 9.97652 1.34133 9.9126C1.35801 9.84867 1.38719 9.78868 1.42719 9.7361C1.46719 9.68352 1.51722 9.63938 1.57437 9.60625L6.5 6.73938V1C6.5 0.867392 6.55268 0.740215 6.64645 0.646447C6.74021 0.552678 6.86739 0.5 7 0.5C8.13429 0.500579 9.24871 0.797834 10.2326 1.36225C11.2165 1.92667 12.0357 2.73863 12.6088 3.7175C12.6156 3.7275 12.6219 3.7375 12.6281 3.74813C12.6344 3.75875 12.6406 3.77125 12.6462 3.7825C13.2071 4.76198 13.5014 5.87133 13.5 7Z" fill="#1C949C"/>
</svg>
