<svg width="138" height="120" viewBox="0 0 138 120" fill="none" xmlns="http://www.w3.org/2000/svg">
<path d="M60 10.8C53.539 10.8 47.1412 12.0726 41.172 14.5451C35.2028 17.0177 29.779 20.6417 25.2103 25.2103C20.6417 29.779 17.0177 35.2028 14.5451 41.172C12.0726 47.1412 10.8 53.539 10.8 60C10.8 66.461 12.0726 72.8588 14.5451 78.828C17.0177 84.7972 20.6417 90.221 25.2103 94.7897C29.779 99.3583 35.2028 102.982 41.172 105.455C47.1412 107.927 53.539 109.2 60 109.2" stroke="#62B2FD" stroke-width="21.6"/>
<path d="M60 109.2C66.461 109.2 72.8588 107.927 78.828 105.455C84.7972 102.982 90.221 99.3583 94.7897 94.7897C99.3583 90.221 102.982 84.7972 105.455 78.828C107.927 72.8588 109.2 66.461 109.2 60" stroke="#9BDFC4" stroke-width="21.6"/>
<path d="M109.2 60C109.2 52.2357 107.362 44.5817 103.838 37.6637C100.313 30.7456 95.2005 24.7601 88.919 20.1964" stroke="#F99BAB" stroke-width="21.6"/>
<path d="M69.2192 11.6715C76.3332 13.0285 83.0599 15.9394 88.919 20.1964" stroke="#FFB44F" stroke-width="21.6"/>
<path d="M60 10.8C63.0936 10.8 66.1803 11.0918 69.2192 11.6715" stroke="#9F97F7" stroke-width="21.6"/>
<path d="M48.1859 48.495V57.2222H46.3407V50.2464H46.2896L44.291 51.4992V49.8629L46.4515 48.495H48.1859ZM51.7814 56.029L51.7346 56.4978C51.6976 56.8728 51.6266 57.2464 51.5215 57.6185C51.4192 57.9935 51.3113 58.333 51.1976 58.637C51.0868 58.941 50.9973 59.1796 50.9292 59.3529H49.753C49.7956 59.1853 49.8539 58.9509 49.9277 58.6498C50.0016 58.3515 50.0712 58.0163 50.1365 57.6441C50.2019 57.2719 50.2431 56.8927 50.2601 56.5063L50.2814 56.029H51.7814ZM53.4242 57.2222V55.8927L56.5307 53.0163C56.7949 52.7606 57.0165 52.5305 57.1955 52.3259C57.3773 52.1214 57.5151 51.9211 57.6088 51.7251C57.7026 51.5262 57.7495 51.3117 57.7495 51.0816C57.7495 50.8259 57.6912 50.6058 57.5748 50.4211C57.4583 50.2336 57.2992 50.0901 57.0975 49.9907C56.8958 49.8884 56.6671 49.8373 56.4114 49.8373C56.1444 49.8373 55.9114 49.8913 55.7125 49.9992C55.5137 50.1072 55.3603 50.262 55.2523 50.4637C55.1444 50.6654 55.0904 50.9055 55.0904 51.1839H53.339C53.339 50.6129 53.4682 50.1171 53.7267 49.6967C53.9853 49.2762 54.3475 48.9509 54.8134 48.7208C55.2793 48.4907 55.8162 48.3756 56.4242 48.3756C57.0492 48.3756 57.5932 48.4864 58.0563 48.708C58.5222 48.9268 58.8844 49.2308 59.1429 49.62C59.4015 50.0092 59.5307 50.4552 59.5307 50.958C59.5307 51.2876 59.4654 51.6129 59.3347 51.9339C59.2069 52.2549 58.9782 52.6114 58.6486 53.0035C58.3191 53.3927 57.8546 53.86 57.2551 54.4055L55.981 55.654V55.7137H59.6458V57.2222H53.4242ZM64.2086 57.3415C63.5723 57.3415 63.0055 57.2322 62.5083 57.0134C62.014 56.7918 61.6234 56.4879 61.3365 56.1015C61.0524 55.7123 60.9061 55.2634 60.8975 54.7549H62.7555C62.7669 54.968 62.8365 55.1555 62.9643 55.3174C63.095 55.4765 63.2683 55.6001 63.4842 55.6881C63.7001 55.7762 63.943 55.8202 64.2129 55.8202C64.4941 55.8202 64.7427 55.7705 64.9586 55.6711C65.1745 55.5717 65.3436 55.4339 65.4657 55.2577C65.5879 55.0816 65.649 54.8785 65.649 54.6484C65.649 54.4154 65.5836 54.2094 65.4529 54.0305C65.3251 53.8486 65.1404 53.7066 64.899 53.6043C64.6603 53.5021 64.3762 53.4509 64.0467 53.4509H63.2328V52.0958H64.0467C64.3251 52.0958 64.5708 52.0475 64.7839 51.9509C64.9998 51.8543 65.1674 51.7208 65.2868 51.5504C65.4061 51.3771 65.4657 51.1754 65.4657 50.9452C65.4657 50.7265 65.4132 50.5347 65.3081 50.37C65.2058 50.2023 65.0609 50.0717 64.8734 49.9779C64.6887 49.8842 64.4728 49.8373 64.2257 49.8373C63.9757 49.8373 63.747 49.8827 63.5396 49.9736C63.3322 50.0617 63.166 50.1881 63.041 50.3529C62.916 50.5177 62.8493 50.7109 62.8407 50.9325H61.0723C61.0808 50.4296 61.2243 49.9864 61.5027 49.6029C61.7811 49.2194 62.1561 48.9197 62.6277 48.7038C63.1021 48.485 63.6376 48.3756 64.2342 48.3756C64.8365 48.3756 65.3635 48.485 65.8152 48.7038C66.2669 48.9225 66.6177 49.218 66.8677 49.5901C67.1206 49.9594 67.2456 50.3742 67.2427 50.8344C67.2456 51.3231 67.0936 51.7308 66.7868 52.0575C66.4828 52.3842 66.0865 52.5915 65.5978 52.6796V52.7478C66.2399 52.8302 66.7285 53.0532 67.0637 53.4168C67.4018 53.7776 67.5694 54.2293 67.5666 54.7719C67.5694 55.2691 67.426 55.7109 67.1362 56.0972C66.8493 56.4836 66.4529 56.7876 65.9473 57.0092C65.4416 57.2308 64.862 57.3415 64.2086 57.3415ZM68.7608 55.6881V54.235L72.4043 48.495H73.6571V50.5063H72.9157L70.6188 54.1413V54.2094H75.7963V55.6881H68.7608ZM72.9498 57.2222V55.245L72.9838 54.6015V48.495H74.714V57.2222H72.9498Z" fill="#1C1C1C"/>
<path opacity="0.85" d="M34.7418 73.1178V64.9231H35.3764V73.1178H34.7418ZM35.1338 72.4178C34.6609 72.4178 34.244 72.3338 33.8831 72.1658C33.5222 71.9916 33.2422 71.7489 33.0431 71.4378C32.844 71.1267 32.7413 70.7627 32.7351 70.3458H33.7244C33.7244 70.5822 33.7773 70.8 33.8831 70.9991C33.9951 71.192 34.1538 71.3476 34.3591 71.4658C34.5707 71.5778 34.8289 71.6338 35.1338 71.6338C35.3951 71.6338 35.6191 71.5902 35.8058 71.5031C35.9987 71.416 36.1449 71.2978 36.2444 71.1485C36.344 70.9929 36.3938 70.8156 36.3938 70.6165C36.3938 70.4049 36.344 70.2276 36.2444 70.0845C36.1511 69.9351 36.0173 69.8107 35.8431 69.7111C35.6751 69.6116 35.4791 69.5213 35.2551 69.4405C35.0311 69.3596 34.7884 69.2787 34.5271 69.1978C33.9796 69.0236 33.5782 68.8027 33.3231 68.5351C33.068 68.2613 32.9404 67.9098 32.9404 67.4805C32.9404 67.1133 33.0244 66.796 33.1924 66.5285C33.3667 66.2547 33.6124 66.0431 33.9298 65.8938C34.2471 65.7382 34.6173 65.6605 35.0404 65.6605C35.4698 65.6605 35.84 65.7382 36.1511 65.8938C36.4684 66.0493 36.7173 66.264 36.8978 66.5378C37.0782 66.8116 37.1716 67.132 37.1778 67.4991H36.1884C36.1884 67.3311 36.1418 67.1662 36.0484 67.0045C35.9613 66.8427 35.8307 66.712 35.6564 66.6125C35.4884 66.5067 35.2769 66.4538 35.0218 66.4538C34.804 66.4476 34.6111 66.4818 34.4431 66.5565C34.2751 66.6311 34.1444 66.74 34.0511 66.8831C33.9578 67.0262 33.9111 67.1973 33.9111 67.3965C33.9111 67.5956 33.9547 67.7573 34.0418 67.8818C34.1289 68 34.2502 68.1027 34.4058 68.1898C34.5676 68.2769 34.7573 68.3578 34.9751 68.4325C35.1929 68.5009 35.4324 68.5787 35.6938 68.6658C36.0111 68.7716 36.2973 68.9022 36.5524 69.0578C36.8076 69.2071 37.0067 69.4031 37.1498 69.6458C37.2991 69.8822 37.3738 70.1871 37.3738 70.5605C37.3738 70.884 37.2898 71.1858 37.1218 71.4658C36.9538 71.7458 36.7049 71.976 36.3751 72.1565C36.0453 72.3307 35.6316 72.4178 35.1338 72.4178ZM39.5088 72.3058V66.8271L38.1741 67.2658V66.5005L39.8541 65.7725H40.4608V72.3058H39.5088ZM44.2818 72.4178C43.7343 72.4178 43.2614 72.2778 42.8632 71.9978C42.4712 71.7116 42.1663 71.3165 41.9485 70.8125C41.7369 70.3022 41.6312 69.7111 41.6312 69.0391C41.6312 68.3671 41.7369 67.7791 41.9485 67.2751C42.1663 66.7649 42.4712 66.3698 42.8632 66.0898C43.2614 65.8036 43.7343 65.6605 44.2818 65.6605C44.8356 65.6605 45.3085 65.8036 45.7005 66.0898C46.0925 66.3698 46.3943 66.7649 46.6058 67.2751C46.8174 67.7791 46.9232 68.3671 46.9232 69.0391C46.9232 69.7111 46.8174 70.3022 46.6058 70.8125C46.3943 71.3165 46.0925 71.7116 45.7005 71.9978C45.3085 72.2778 44.8356 72.4178 44.2818 72.4178ZM44.2818 71.5871C44.6116 71.5871 44.9009 71.4845 45.1498 71.2791C45.4049 71.0738 45.604 70.7813 45.7472 70.4018C45.8965 70.0222 45.9712 69.568 45.9712 69.0391C45.9712 68.504 45.8965 68.0498 45.7472 67.6765C45.604 67.2969 45.4049 67.0076 45.1498 66.8085C44.9009 66.6031 44.6116 66.5005 44.2818 66.5005C43.952 66.5005 43.6565 66.6031 43.3952 66.8085C43.14 67.0076 42.9409 67.2969 42.7978 67.6765C42.6547 68.0498 42.5832 68.504 42.5832 69.0391C42.5832 69.568 42.6547 70.0222 42.7978 70.4018C42.9409 70.7813 43.14 71.0738 43.3952 71.2791C43.6565 71.4845 43.952 71.5871 44.2818 71.5871ZM50.4889 72.4178C49.9413 72.4178 49.4684 72.2778 49.0702 71.9978C48.6782 71.7116 48.3733 71.3165 48.1555 70.8125C47.944 70.3022 47.8382 69.7111 47.8382 69.0391C47.8382 68.3671 47.944 67.7791 48.1555 67.2751C48.3733 66.7649 48.6782 66.3698 49.0702 66.0898C49.4684 65.8036 49.9413 65.6605 50.4889 65.6605C51.0426 65.6605 51.5155 65.8036 51.9075 66.0898C52.2995 66.3698 52.6013 66.7649 52.8129 67.2751C53.0244 67.7791 53.1302 68.3671 53.1302 69.0391C53.1302 69.7111 53.0244 70.3022 52.8129 70.8125C52.6013 71.3165 52.2995 71.7116 51.9075 71.9978C51.5155 72.2778 51.0426 72.4178 50.4889 72.4178ZM50.4889 71.5871C50.8186 71.5871 51.108 71.4845 51.3569 71.2791C51.612 71.0738 51.8111 70.7813 51.9542 70.4018C52.1035 70.0222 52.1782 69.568 52.1782 69.0391C52.1782 68.504 52.1035 68.0498 51.9542 67.6765C51.8111 67.2969 51.612 67.0076 51.3569 66.8085C51.108 66.6031 50.8186 66.5005 50.4889 66.5005C50.1591 66.5005 49.8635 66.6031 49.6022 66.8085C49.3471 67.0076 49.148 67.2969 49.0049 67.6765C48.8617 68.0498 48.7902 68.504 48.7902 69.0391C48.7902 69.568 48.8617 70.0222 49.0049 70.4018C49.148 70.7813 49.3471 71.0738 49.6022 71.2791C49.8635 71.4845 50.1591 71.5871 50.4889 71.5871ZM53.464 73.4538L54.0053 71.2978H54.9387L54.0893 73.4538H53.464ZM58.4185 72.4178C57.871 72.4178 57.3981 72.2778 56.9999 71.9978C56.6079 71.7116 56.303 71.3165 56.0852 70.8125C55.8737 70.3022 55.7679 69.7111 55.7679 69.0391C55.7679 68.3671 55.8737 67.7791 56.0852 67.2751C56.303 66.7649 56.6079 66.3698 56.9999 66.0898C57.3981 65.8036 57.871 65.6605 58.4185 65.6605C58.9723 65.6605 59.4452 65.8036 59.8372 66.0898C60.2292 66.3698 60.531 66.7649 60.7425 67.2751C60.9541 67.7791 61.0599 68.3671 61.0599 69.0391C61.0599 69.7111 60.9541 70.3022 60.7425 70.8125C60.531 71.3165 60.2292 71.7116 59.8372 71.9978C59.4452 72.2778 58.9723 72.4178 58.4185 72.4178ZM58.4185 71.5871C58.7483 71.5871 59.0377 71.4845 59.2865 71.2791C59.5417 71.0738 59.7408 70.7813 59.8839 70.4018C60.0332 70.0222 60.1079 69.568 60.1079 69.0391C60.1079 68.504 60.0332 68.0498 59.8839 67.6765C59.7408 67.2969 59.5417 67.0076 59.2865 66.8085C59.0377 66.6031 58.7483 66.5005 58.4185 66.5005C58.0888 66.5005 57.7932 66.6031 57.5319 66.8085C57.2768 67.0076 57.0777 67.2969 56.9345 67.6765C56.7914 68.0498 56.7199 68.504 56.7199 69.0391C56.7199 69.568 56.7914 70.0222 56.9345 70.4018C57.0777 70.7813 57.2768 71.0738 57.5319 71.2791C57.7932 71.4845 58.0888 71.5871 58.4185 71.5871ZM64.6256 72.4178C64.078 72.4178 63.6051 72.2778 63.2069 71.9978C62.8149 71.7116 62.51 71.3165 62.2922 70.8125C62.0807 70.3022 61.9749 69.7111 61.9749 69.0391C61.9749 68.3671 62.0807 67.7791 62.2922 67.2751C62.51 66.7649 62.8149 66.3698 63.2069 66.0898C63.6051 65.8036 64.078 65.6605 64.6256 65.6605C65.1794 65.6605 65.6522 65.8036 66.0442 66.0898C66.4362 66.3698 66.738 66.7649 66.9496 67.2751C67.1611 67.7791 67.2669 68.3671 67.2669 69.0391C67.2669 69.7111 67.1611 70.3022 66.9496 70.8125C66.738 71.3165 66.4362 71.7116 66.0442 71.9978C65.6522 72.2778 65.1794 72.4178 64.6256 72.4178ZM64.6256 71.5871C64.9554 71.5871 65.2447 71.4845 65.4936 71.2791C65.7487 71.0738 65.9478 70.7813 66.0909 70.4018C66.2402 70.0222 66.3149 69.568 66.3149 69.0391C66.3149 68.504 66.2402 68.0498 66.0909 67.6765C65.9478 67.2969 65.7487 67.0076 65.4936 66.8085C65.2447 66.6031 64.9554 66.5005 64.6256 66.5005C64.2958 66.5005 64.0002 66.6031 63.7389 66.8085C63.4838 67.0076 63.2847 67.2969 63.1416 67.6765C62.9985 68.0498 62.9269 68.504 62.9269 69.0391C62.9269 69.568 62.9985 70.0222 63.1416 70.4018C63.2847 70.7813 63.4838 71.0738 63.7389 71.2791C64.0002 71.4845 64.2958 71.5871 64.6256 71.5871ZM70.8326 72.4178C70.2851 72.4178 69.8122 72.2778 69.4139 71.9978C69.0219 71.7116 68.7171 71.3165 68.4993 70.8125C68.2877 70.3022 68.1819 69.7111 68.1819 69.0391C68.1819 68.3671 68.2877 67.7791 68.4993 67.2751C68.7171 66.7649 69.0219 66.3698 69.4139 66.0898C69.8122 65.8036 70.2851 65.6605 70.8326 65.6605C71.3864 65.6605 71.8593 65.8036 72.2513 66.0898C72.6433 66.3698 72.9451 66.7649 73.1566 67.2751C73.3682 67.7791 73.4739 68.3671 73.4739 69.0391C73.4739 69.7111 73.3682 70.3022 73.1566 70.8125C72.9451 71.3165 72.6433 71.7116 72.2513 71.9978C71.8593 72.2778 71.3864 72.4178 70.8326 72.4178ZM70.8326 71.5871C71.1624 71.5871 71.4517 71.4845 71.7006 71.2791C71.9557 71.0738 72.1548 70.7813 72.2979 70.4018C72.4473 70.0222 72.5219 69.568 72.5219 69.0391C72.5219 68.504 72.4473 68.0498 72.2979 67.6765C72.1548 67.2969 71.9557 67.0076 71.7006 66.8085C71.4517 66.6031 71.1624 66.5005 70.8326 66.5005C70.5028 66.5005 70.2073 66.6031 69.9459 66.8085C69.6908 67.0076 69.4917 67.2969 69.3486 67.6765C69.2055 68.0498 69.1339 68.504 69.1339 69.0391C69.1339 69.568 69.2055 70.0222 69.3486 70.4018C69.4917 70.7813 69.6908 71.0738 69.9459 71.2791C70.2073 71.4845 70.5028 71.5871 70.8326 71.5871ZM74.6126 72.3525C74.4384 72.3525 74.2922 72.2965 74.1739 72.1845C74.0619 72.0662 74.0059 71.9262 74.0059 71.7645C74.0059 71.5965 74.0619 71.4565 74.1739 71.3445C74.2922 71.2262 74.4384 71.1671 74.6126 71.1671C74.7993 71.1671 74.9455 71.2262 75.0513 71.3445C75.1633 71.4565 75.2193 71.5965 75.2193 71.7645C75.2193 71.9262 75.1633 72.0662 75.0513 72.1845C74.9455 72.2965 74.7993 72.3525 74.6126 72.3525ZM78.4068 72.4178C77.8593 72.4178 77.3864 72.2778 76.9882 71.9978C76.5962 71.7116 76.2913 71.3165 76.0735 70.8125C75.8619 70.3022 75.7562 69.7111 75.7562 69.0391C75.7562 68.3671 75.8619 67.7791 76.0735 67.2751C76.2913 66.7649 76.5962 66.3698 76.9882 66.0898C77.3864 65.8036 77.8593 65.6605 78.4068 65.6605C78.9606 65.6605 79.4335 65.8036 79.8255 66.0898C80.2175 66.3698 80.5193 66.7649 80.7308 67.2751C80.9424 67.7791 81.0482 68.3671 81.0482 69.0391C81.0482 69.7111 80.9424 70.3022 80.7308 70.8125C80.5193 71.3165 80.2175 71.7116 79.8255 71.9978C79.4335 72.2778 78.9606 72.4178 78.4068 72.4178ZM78.4068 71.5871C78.7366 71.5871 79.0259 71.4845 79.2748 71.2791C79.5299 71.0738 79.7291 70.7813 79.8722 70.4018C80.0215 70.0222 80.0962 69.568 80.0962 69.0391C80.0962 68.504 80.0215 68.0498 79.8722 67.6765C79.7291 67.2969 79.5299 67.0076 79.2748 66.8085C79.0259 66.6031 78.7366 66.5005 78.4068 66.5005C78.0771 66.5005 77.7815 66.6031 77.5202 66.8085C77.2651 67.0076 77.0659 67.2969 76.9228 67.6765C76.7797 68.0498 76.7082 68.504 76.7082 69.0391C76.7082 69.568 76.7797 70.0222 76.9228 70.4018C77.0659 70.7813 77.2651 71.0738 77.5202 71.2791C77.7815 71.4845 78.0771 71.5871 78.4068 71.5871ZM84.6139 72.4178C84.0663 72.4178 83.5934 72.2778 83.1952 71.9978C82.8032 71.7116 82.4983 71.3165 82.2805 70.8125C82.069 70.3022 81.9632 69.7111 81.9632 69.0391C81.9632 68.3671 82.069 67.7791 82.2805 67.2751C82.4983 66.7649 82.8032 66.3698 83.1952 66.0898C83.5934 65.8036 84.0663 65.6605 84.6139 65.6605C85.1676 65.6605 85.6405 65.8036 86.0325 66.0898C86.4245 66.3698 86.7263 66.7649 86.9379 67.2751C87.1494 67.7791 87.2552 68.3671 87.2552 69.0391C87.2552 69.7111 87.1494 70.3022 86.9379 70.8125C86.7263 71.3165 86.4245 71.7116 86.0325 71.9978C85.6405 72.2778 85.1676 72.4178 84.6139 72.4178ZM84.6139 71.5871C84.9436 71.5871 85.233 71.4845 85.4819 71.2791C85.737 71.0738 85.9361 70.7813 86.0792 70.4018C86.2285 70.0222 86.3032 69.568 86.3032 69.0391C86.3032 68.504 86.2285 68.0498 86.0792 67.6765C85.9361 67.2969 85.737 67.0076 85.4819 66.8085C85.233 66.6031 84.9436 66.5005 84.6139 66.5005C84.2841 66.5005 83.9885 66.6031 83.7272 66.8085C83.4721 67.0076 83.273 67.2969 83.1299 67.6765C82.9867 68.0498 82.9152 68.504 82.9152 69.0391C82.9152 69.568 82.9867 70.0222 83.1299 70.4018C83.273 70.7813 83.4721 71.0738 83.7272 71.2791C83.9885 71.4845 84.2841 71.5871 84.6139 71.5871Z" fill="#8C97A7"/>
<path d="M87 98.8C87 94.3196 87 92.0794 87.8719 90.3681C88.6389 88.8628 89.8628 87.6389 91.3681 86.8719C93.0794 86 95.3196 86 99.8 86H125.2C129.68 86 131.921 86 133.632 86.8719C135.137 87.6389 136.361 88.8628 137.128 90.3681C138 92.0794 138 94.3196 138 98.8V99.2C138 103.68 138 105.921 137.128 107.632C136.361 109.137 135.137 110.361 133.632 111.128C131.921 112 129.68 112 125.2 112H99.8C95.3196 112 93.0794 112 91.3681 111.128C89.8628 110.361 88.6389 109.137 87.8719 107.632C87 105.921 87 103.68 87 99.2V98.8Z" fill="#1C1C1C" fill-opacity="0.8"/>
<path d="M95.767 100.818H96.8409C96.8722 101.114 96.973 101.364 97.1435 101.568C97.3168 101.77 97.5412 101.923 97.8168 102.028C98.0923 102.131 98.3977 102.182 98.733 102.182C99.0966 102.182 99.4233 102.121 99.7131 101.999C100.003 101.876 100.233 101.695 100.403 101.453C100.574 101.209 100.659 100.906 100.659 100.545C100.659 100.23 100.585 99.9375 100.438 99.6676C100.29 99.3949 100.053 99.1747 99.7259 99.0071C99.3991 98.8395 98.9659 98.7557 98.4261 98.7557H97.7273V97.9034L99.9091 95.2784V95.2102H96.1932V94.2727H101.358V95.0398L99.0227 97.8693V97.9375C99.3977 97.9545 99.7472 98.0312 100.071 98.1676C100.398 98.304 100.682 98.4886 100.923 98.7216C101.168 98.9545 101.358 99.2259 101.494 99.5355C101.631 99.8452 101.699 100.182 101.699 100.545C101.699 101.043 101.571 101.486 101.315 101.875C101.063 102.261 100.712 102.565 100.263 102.787C99.8168 103.009 99.3011 103.119 98.7159 103.119C98.1989 103.119 97.723 103.028 97.2884 102.847C96.8537 102.665 96.5 102.402 96.2273 102.058C95.9545 101.714 95.8011 101.301 95.767 100.818ZM106.234 103.119C105.649 103.119 105.132 103.016 104.683 102.808C104.237 102.598 103.889 102.31 103.639 101.943C103.389 101.574 103.265 101.153 103.268 100.682C103.265 100.312 103.338 99.9716 103.485 99.6591C103.633 99.3437 103.835 99.081 104.091 98.8707C104.349 98.6577 104.637 98.5227 104.956 98.4659V98.4148C104.538 98.3068 104.206 98.0724 103.958 97.7116C103.711 97.348 103.589 96.9347 103.592 96.4716C103.589 96.0284 103.701 95.6321 103.929 95.2827C104.156 94.9332 104.468 94.6577 104.866 94.456C105.267 94.2543 105.723 94.1534 106.234 94.1534C106.74 94.1534 107.191 94.2543 107.589 94.456C107.987 94.6577 108.299 94.9332 108.527 95.2827C108.757 95.6321 108.873 96.0284 108.876 96.4716C108.873 96.9347 108.747 97.348 108.497 97.7116C108.25 98.0724 107.922 98.3068 107.512 98.4148V98.4659C107.828 98.5227 108.112 98.6577 108.365 98.8707C108.618 99.081 108.819 99.3437 108.97 99.6591C109.12 99.9716 109.197 100.312 109.2 100.682C109.197 101.153 109.069 101.574 108.816 101.943C108.566 102.31 108.218 102.598 107.772 102.808C107.329 103.016 106.816 103.119 106.234 103.119ZM106.234 102.182C106.629 102.182 106.97 102.118 107.257 101.99C107.544 101.862 107.765 101.682 107.922 101.449C108.078 101.216 108.157 100.943 108.16 100.631C108.157 100.301 108.072 100.01 107.904 99.7571C107.737 99.5043 107.508 99.3054 107.218 99.1605C106.931 99.0156 106.603 98.9432 106.234 98.9432C105.862 98.9432 105.529 99.0156 105.237 99.1605C104.947 99.3054 104.718 99.5043 104.551 99.7571C104.386 100.01 104.305 100.301 104.308 100.631C104.305 100.943 104.38 101.216 104.534 101.449C104.69 101.682 104.913 101.862 105.203 101.99C105.493 102.118 105.836 102.182 106.234 102.182ZM106.234 98.0398C106.547 98.0398 106.824 97.9773 107.065 97.8523C107.309 97.7273 107.501 97.5526 107.64 97.3281C107.779 97.1037 107.85 96.8409 107.853 96.5398C107.85 96.2443 107.781 95.9872 107.645 95.7685C107.508 95.5469 107.319 95.3764 107.078 95.2571C106.836 95.1349 106.555 95.0739 106.234 95.0739C105.907 95.0739 105.622 95.1349 105.377 95.2571C105.133 95.3764 104.944 95.5469 104.811 95.7685C104.677 95.9872 104.612 96.2443 104.615 96.5398C104.612 96.8409 104.679 97.1037 104.815 97.3281C104.954 97.5526 105.146 97.7273 105.39 97.8523C105.635 97.9773 105.916 98.0398 106.234 98.0398ZM111.314 103.068C111.103 103.068 110.923 102.993 110.772 102.842C110.622 102.692 110.547 102.511 110.547 102.301C110.547 102.091 110.622 101.911 110.772 101.76C110.923 101.609 111.103 101.534 111.314 101.534C111.524 101.534 111.704 101.609 111.855 101.76C112.005 101.911 112.081 102.091 112.081 102.301C112.081 102.44 112.045 102.568 111.974 102.685C111.906 102.801 111.814 102.895 111.697 102.966C111.583 103.034 111.456 103.068 111.314 103.068ZM113.664 100.239C113.669 99.9659 113.711 99.6832 113.787 99.3906C113.864 99.098 113.993 98.7727 114.175 98.4148C114.357 98.0568 114.607 97.642 114.925 97.1705L116.885 94.2727H118.044L115.743 97.6307C115.846 97.5966 115.951 97.5682 116.059 97.5455C116.169 97.5227 116.28 97.5114 116.391 97.5114C116.919 97.5114 117.391 97.6335 117.806 97.8778C118.223 98.1222 118.551 98.456 118.79 98.8793C119.032 99.3026 119.152 99.7841 119.152 100.324C119.152 100.864 119.033 101.344 118.794 101.764C118.559 102.185 118.233 102.516 117.819 102.757C117.407 102.999 116.936 103.119 116.408 103.119C115.874 103.119 115.4 102.996 114.985 102.749C114.57 102.499 114.245 102.158 114.009 101.726C113.773 101.291 113.658 100.795 113.664 100.239ZM114.669 100.307C114.669 100.676 114.743 101.003 114.891 101.287C115.039 101.571 115.243 101.794 115.505 101.956C115.766 102.118 116.067 102.199 116.408 102.199C116.749 102.199 117.05 102.119 117.311 101.96C117.573 101.798 117.777 101.577 117.925 101.295C118.073 101.011 118.147 100.687 118.147 100.324C118.147 99.9545 118.073 99.6293 117.925 99.348C117.777 99.0668 117.573 98.8466 117.311 98.6875C117.05 98.5284 116.749 98.4489 116.408 98.4489C116.067 98.4489 115.766 98.5284 115.505 98.6875C115.243 98.8438 115.039 99.0625 114.891 99.3438C114.743 99.6222 114.669 99.9432 114.669 100.307ZM125.208 101.364V100.903C125.208 100.585 125.273 100.294 125.404 100.03C125.537 99.7628 125.73 99.5497 125.983 99.3906C126.239 99.2287 126.549 99.1477 126.912 99.1477C127.282 99.1477 127.591 99.2287 127.841 99.3906C128.091 99.5497 128.28 99.7628 128.408 100.03C128.536 100.294 128.6 100.585 128.6 100.903V101.364C128.6 101.682 128.534 101.974 128.404 102.241C128.276 102.506 128.086 102.719 127.833 102.881C127.583 103.04 127.276 103.119 126.912 103.119C126.543 103.119 126.232 103.04 125.979 102.881C125.726 102.719 125.534 102.506 125.404 102.241C125.273 101.974 125.208 101.682 125.208 101.364ZM126.077 100.903V101.364C126.077 101.628 126.14 101.865 126.265 102.075C126.39 102.283 126.605 102.386 126.912 102.386C127.211 102.386 127.421 102.283 127.543 102.075C127.668 101.865 127.73 101.628 127.73 101.364V100.903C127.73 100.639 127.671 100.403 127.551 100.196C127.432 99.9858 127.219 99.8807 126.912 99.8807C126.614 99.8807 126.4 99.9858 126.269 100.196C126.141 100.403 126.077 100.639 126.077 100.903ZM120.861 96.3693V95.9091C120.861 95.5909 120.926 95.2997 121.057 95.0355C121.191 94.7685 121.384 94.5554 121.637 94.3963C121.892 94.2344 122.202 94.1534 122.566 94.1534C122.935 94.1534 123.245 94.2344 123.495 94.3963C123.745 94.5554 123.934 94.7685 124.061 95.0355C124.189 95.2997 124.253 95.5909 124.253 95.9091V96.3693C124.253 96.6875 124.188 96.9801 124.057 97.2472C123.929 97.5114 123.739 97.7244 123.486 97.8864C123.236 98.0455 122.929 98.125 122.566 98.125C122.196 98.125 121.885 98.0455 121.632 97.8864C121.38 97.7244 121.188 97.5114 121.057 97.2472C120.926 96.9801 120.861 96.6875 120.861 96.3693ZM121.73 95.9091V96.3693C121.73 96.6335 121.793 96.8707 121.918 97.081C122.043 97.2884 122.259 97.392 122.566 97.392C122.864 97.392 123.074 97.2884 123.196 97.081C123.321 96.8707 123.384 96.6335 123.384 96.3693V95.9091C123.384 95.6449 123.324 95.4091 123.205 95.2017C123.086 94.9915 122.873 94.8864 122.566 94.8864C122.267 94.8864 122.053 94.9915 121.922 95.2017C121.794 95.4091 121.73 95.6449 121.73 95.9091ZM121.185 103L127.185 94.2727H128.157L122.157 103H121.185Z" fill="white"/>
</svg>
