<svg width="20" height="20" viewBox="0 0 20 20" fill="none" xmlns="http://www.w3.org/2000/svg">
<path d="M11.7282 3.23796C12.3492 2.56515 12.6597 2.22875 12.9896 2.03252C13.7857 1.55905 14.766 1.54432 15.5754 1.99368C15.9108 2.17991 16.2309 2.50685 16.8709 3.16072C17.511 3.81458 17.8311 4.14152 18.0134 4.48419C18.4533 5.31101 18.4388 6.31241 17.9754 7.12567C17.7833 7.46271 17.454 7.77989 16.7953 8.41426L8.95894 15.962C7.71081 17.1641 7.08675 17.7652 6.3068 18.0699C5.52685 18.3745 4.66942 18.3521 2.95455 18.3072L2.72123 18.3011C2.19917 18.2875 1.93814 18.2807 1.7864 18.1085C1.63467 17.9363 1.65538 17.6704 1.69681 17.1386L1.71931 16.8498C1.83592 15.353 1.89423 14.6047 2.1865 13.9319C2.47878 13.2592 2.98294 12.713 3.99127 11.6205L11.7282 3.23796Z" stroke="#677188" stroke-width="1.5" stroke-linejoin="round"/>
<path d="M10.8335 3.3335L16.6668 9.16683" stroke="#677188" stroke-width="1.5" stroke-linejoin="round"/>
<path d="M11.6667 18.3335L18.3334 18.3335" stroke="#677188" stroke-width="1.5" stroke-linecap="round" stroke-linejoin="round"/>
</svg>
