<svg width="14" height="11" viewBox="0 0 14 11" fill="none" xmlns="http://www.w3.org/2000/svg">
<path d="M7 2L5.13312 3.4C5.04658 3.46491 4.94131 3.5 4.83313 3.5H1V1C1 0.867392 1.05268 0.740215 1.14645 0.646447C1.24021 0.552679 1.36739 0.5 1.5 0.5H4.83313C4.94131 0.5 5.04658 0.535089 5.13312 0.6L7 2Z" fill="#E34614" fill-opacity="0.04"/>
<path d="M12.5 1.5H7.16687L5.43313 0.2C5.25978 0.0706595 5.04941 0.000536462 4.83313 0H1.5C1.23478 0 0.98043 0.105357 0.792893 0.292893C0.605357 0.48043 0.5 0.734784 0.5 1V9.5C0.5 9.76522 0.605357 10.0196 0.792893 10.2071C0.98043 10.3946 1.23478 10.5 1.5 10.5H12.5C12.7652 10.5 13.0196 10.3946 13.2071 10.2071C13.3946 10.0196 13.5 9.76522 13.5 9.5V2.5C13.5 2.23478 13.3946 1.98043 13.2071 1.79289C13.0196 1.60536 12.7652 1.5 12.5 1.5ZM1.5 1H4.83313L6.16687 2L4.83313 3H1.5V1ZM12.5 9.5H1.5V4H4.83313C5.04941 3.99946 5.25978 3.92934 5.43313 3.8L7.16687 2.5H12.5V9.5Z" fill="#E34614"/>
</svg>
