<svg width="224" height="157" viewBox="0 0 224 157" fill="none" xmlns="http://www.w3.org/2000/svg">
<path d="M12.2879 146.03V151.18C12.2879 151.753 12.1113 152.213 11.7579 152.56C11.4046 152.9 10.9379 153.07 10.3579 153.07C9.77127 153.07 9.30127 152.897 8.94793 152.55C8.5946 152.197 8.41793 151.717 8.41793 151.11H9.32793C9.3346 151.45 9.42127 151.727 9.58793 151.94C9.76127 152.153 10.0179 152.26 10.3579 152.26C10.6979 152.26 10.9513 152.16 11.1179 151.96C11.2846 151.753 11.3679 151.493 11.3679 151.18V146.03H12.2879ZM13.7407 150.24C13.7407 149.68 13.854 149.19 14.0807 148.77C14.3073 148.343 14.6173 148.013 15.0107 147.78C15.4107 147.547 15.854 147.43 16.3407 147.43C16.8207 147.43 17.2373 147.533 17.5907 147.74C17.944 147.947 18.2073 148.207 18.3807 148.52V147.52H19.3007V153H18.3807V151.98C18.2007 152.3 17.9307 152.567 17.5707 152.78C17.2173 152.987 16.804 153.09 16.3307 153.09C15.844 153.09 15.404 152.97 15.0107 152.73C14.6173 152.49 14.3073 152.153 14.0807 151.72C13.854 151.287 13.7407 150.793 13.7407 150.24ZM18.3807 150.25C18.3807 149.837 18.2973 149.477 18.1307 149.17C17.964 148.863 17.7373 148.63 17.4507 148.47C17.1707 148.303 16.8607 148.22 16.5207 148.22C16.1807 148.22 15.8707 148.3 15.5907 148.46C15.3107 148.62 15.0873 148.853 14.9207 149.16C14.754 149.467 14.6707 149.827 14.6707 150.24C14.6707 150.66 14.754 151.027 14.9207 151.34C15.0873 151.647 15.3107 151.883 15.5907 152.05C15.8707 152.21 16.1807 152.29 16.5207 152.29C16.8607 152.29 17.1707 152.21 17.4507 152.05C17.7373 151.883 17.964 151.647 18.1307 151.34C18.2973 151.027 18.3807 150.663 18.3807 150.25ZM23.5085 147.42C24.1751 147.42 24.7151 147.623 25.1285 148.03C25.5418 148.43 25.7485 149.01 25.7485 149.77V153H24.8485V149.9C24.8485 149.353 24.7118 148.937 24.4385 148.65C24.1651 148.357 23.7918 148.21 23.3185 148.21C22.8385 148.21 22.4551 148.36 22.1685 148.66C21.8885 148.96 21.7485 149.397 21.7485 149.97V153H20.8385V147.52H21.7485V148.3C21.9285 148.02 22.1718 147.803 22.4785 147.65C22.7918 147.497 23.1351 147.42 23.5085 147.42Z" fill="#7B91B0"/>
<rect x="19.0826" y="30.9084" width="15.2661" height="102.092" rx="4" fill="#F6C954"/>
<rect y="54.3239" width="15.2661" height="78.6761" rx="4" fill="#3BBE9B"/>
<path d="M60.7654 146.03V146.77H57.7354V149.12H60.1954V149.86H57.7354V153H56.8254V146.03H60.7654ZM66.8645 150.05C66.8645 150.223 66.8545 150.407 66.8345 150.6H62.4545C62.4878 151.14 62.6711 151.563 63.0045 151.87C63.3445 152.17 63.7545 152.32 64.2345 152.32C64.6278 152.32 64.9545 152.23 65.2145 152.05C65.4811 151.863 65.6678 151.617 65.7745 151.31H66.7545C66.6078 151.837 66.3145 152.267 65.8745 152.6C65.4345 152.927 64.8878 153.09 64.2345 153.09C63.7145 153.09 63.2478 152.973 62.8345 152.74C62.4278 152.507 62.1078 152.177 61.8745 151.75C61.6411 151.317 61.5245 150.817 61.5245 150.25C61.5245 149.683 61.6378 149.187 61.8645 148.76C62.0911 148.333 62.4078 148.007 62.8145 147.78C63.2278 147.547 63.7011 147.43 64.2345 147.43C64.7545 147.43 65.2145 147.543 65.6145 147.77C66.0145 147.997 66.3211 148.31 66.5345 148.71C66.7545 149.103 66.8645 149.55 66.8645 150.05ZM65.9245 149.86C65.9245 149.513 65.8478 149.217 65.6945 148.97C65.5411 148.717 65.3311 148.527 65.0645 148.4C64.8045 148.267 64.5145 148.2 64.1945 148.2C63.7345 148.2 63.3411 148.347 63.0145 148.64C62.6945 148.933 62.5111 149.34 62.4645 149.86H65.9245ZM68.9757 148.54C69.1623 148.213 69.4357 147.947 69.7957 147.74C70.1557 147.533 70.5657 147.43 71.0257 147.43C71.519 147.43 71.9623 147.547 72.3557 147.78C72.749 148.013 73.059 148.343 73.2857 148.77C73.5123 149.19 73.6257 149.68 73.6257 150.24C73.6257 150.793 73.5123 151.287 73.2857 151.72C73.059 152.153 72.7457 152.49 72.3457 152.73C71.9523 152.97 71.5123 153.09 71.0257 153.09C70.5523 153.09 70.1357 152.987 69.7757 152.78C69.4223 152.573 69.1557 152.31 68.9757 151.99V153H68.0657V145.6H68.9757V148.54ZM72.6957 150.24C72.6957 149.827 72.6123 149.467 72.4457 149.16C72.279 148.853 72.0523 148.62 71.7657 148.46C71.4857 148.3 71.1757 148.22 70.8357 148.22C70.5023 148.22 70.1923 148.303 69.9057 148.47C69.6257 148.63 69.399 148.867 69.2257 149.18C69.059 149.487 68.9757 149.843 68.9757 150.25C68.9757 150.663 69.059 151.027 69.2257 151.34C69.399 151.647 69.6257 151.883 69.9057 152.05C70.1923 152.21 70.5023 152.29 70.8357 152.29C71.1757 152.29 71.4857 152.21 71.7657 152.05C72.0523 151.883 72.279 151.647 72.4457 151.34C72.6123 151.027 72.6957 150.66 72.6957 150.24Z" fill="#7B91B0"/>
<rect x="67.1302" y="40.2747" width="15.2661" height="92.7253" rx="4" fill="#F6C954"/>
<rect x="48.0475" y="64.6268" width="15.2661" height="68.3732" rx="4" fill="#3BBE9B"/>
<path d="M109.941 146.08V153H109.031V147.84L106.731 153H106.091L103.781 147.83V153H102.871V146.08H103.851L106.411 151.8L108.971 146.08H109.941ZM111.144 150.24C111.144 149.68 111.258 149.19 111.484 148.77C111.711 148.343 112.021 148.013 112.414 147.78C112.814 147.547 113.258 147.43 113.744 147.43C114.224 147.43 114.641 147.533 114.994 147.74C115.348 147.947 115.611 148.207 115.784 148.52V147.52H116.704V153H115.784V151.98C115.604 152.3 115.334 152.567 114.974 152.78C114.621 152.987 114.208 153.09 113.734 153.09C113.248 153.09 112.808 152.97 112.414 152.73C112.021 152.49 111.711 152.153 111.484 151.72C111.258 151.287 111.144 150.793 111.144 150.24ZM115.784 150.25C115.784 149.837 115.701 149.477 115.534 149.17C115.368 148.863 115.141 148.63 114.854 148.47C114.574 148.303 114.264 148.22 113.924 148.22C113.584 148.22 113.274 148.3 112.994 148.46C112.714 148.62 112.491 148.853 112.324 149.16C112.158 149.467 112.074 149.827 112.074 150.24C112.074 150.66 112.158 151.027 112.324 151.34C112.491 151.647 112.714 151.883 112.994 152.05C113.274 152.21 113.584 152.29 113.924 152.29C114.264 152.29 114.574 152.21 114.854 152.05C115.141 151.883 115.368 151.647 115.534 151.34C115.701 151.027 115.784 150.663 115.784 150.25ZM119.152 148.41C119.312 148.097 119.539 147.853 119.832 147.68C120.132 147.507 120.495 147.42 120.922 147.42V148.36H120.682C119.662 148.36 119.152 148.913 119.152 150.02V153H118.242V147.52H119.152V148.41Z" fill="#7B91B0"/>
<rect x="114.177" y="16.8592" width="15.2661" height="116.141" rx="4" fill="#F6C954"/>
<rect x="95.094" y="74.9296" width="15.2661" height="58.0704" rx="4" fill="#3BBE9B"/>
<path d="M155.038 151.45H151.998L151.438 153H150.478L152.998 146.07H154.048L156.558 153H155.598L155.038 151.45ZM154.778 150.71L153.518 147.19L152.258 150.71H154.778ZM158.567 148.53C158.747 148.217 159.013 147.957 159.367 147.75C159.727 147.537 160.143 147.43 160.617 147.43C161.103 147.43 161.543 147.547 161.937 147.78C162.337 148.013 162.65 148.343 162.877 148.77C163.103 149.19 163.217 149.68 163.217 150.24C163.217 150.793 163.103 151.287 162.877 151.72C162.65 152.153 162.337 152.49 161.937 152.73C161.543 152.97 161.103 153.09 160.617 153.09C160.15 153.09 159.737 152.987 159.377 152.78C159.023 152.567 158.753 152.303 158.567 151.99V155.6H157.657V147.52H158.567V148.53ZM162.287 150.24C162.287 149.827 162.203 149.467 162.037 149.16C161.87 148.853 161.643 148.62 161.357 148.46C161.077 148.3 160.767 148.22 160.427 148.22C160.093 148.22 159.783 148.303 159.497 148.47C159.217 148.63 158.99 148.867 158.817 149.18C158.65 149.487 158.567 149.843 158.567 150.25C158.567 150.663 158.65 151.027 158.817 151.34C158.99 151.647 159.217 151.883 159.497 152.05C159.783 152.21 160.093 152.29 160.427 152.29C160.767 152.29 161.077 152.21 161.357 152.05C161.643 151.883 161.87 151.647 162.037 151.34C162.203 151.027 162.287 150.66 162.287 150.24ZM165.324 148.41C165.484 148.097 165.711 147.853 166.004 147.68C166.304 147.507 166.668 147.42 167.094 147.42V148.36H166.854C165.834 148.36 165.324 148.913 165.324 150.02V153H164.414V147.52H165.324V148.41Z" fill="#7B91B0"/>
<rect x="160.316" y="40.2747" width="15.2661" height="92.7253" rx="4" fill="#F6C954"/>
<rect x="143.141" y="54.324" width="15.2661" height="78.6761" rx="4" fill="#3BBE9B"/>
<path d="M203.033 146.08V153H202.123V147.84L199.823 153H199.183L196.873 147.83V153H195.963V146.08H196.943L199.503 151.8L202.063 146.08H203.033ZM204.236 150.24C204.236 149.68 204.349 149.19 204.576 148.77C204.803 148.343 205.113 148.013 205.506 147.78C205.906 147.547 206.349 147.43 206.836 147.43C207.316 147.43 207.733 147.533 208.086 147.74C208.439 147.947 208.703 148.207 208.876 148.52V147.52H209.796V153H208.876V151.98C208.696 152.3 208.426 152.567 208.066 152.78C207.713 152.987 207.299 153.09 206.826 153.09C206.339 153.09 205.899 152.97 205.506 152.73C205.113 152.49 204.803 152.153 204.576 151.72C204.349 151.287 204.236 150.793 204.236 150.24ZM208.876 150.25C208.876 149.837 208.793 149.477 208.626 149.17C208.459 148.863 208.233 148.63 207.946 148.47C207.666 148.303 207.356 148.22 207.016 148.22C206.676 148.22 206.366 148.3 206.086 148.46C205.806 148.62 205.583 148.853 205.416 149.16C205.249 149.467 205.166 149.827 205.166 150.24C205.166 150.66 205.249 151.027 205.416 151.34C205.583 151.647 205.806 151.883 206.086 152.05C206.366 152.21 206.676 152.29 207.016 152.29C207.356 152.29 207.666 152.21 207.946 152.05C208.233 151.883 208.459 151.647 208.626 151.34C208.793 151.027 208.876 150.663 208.876 150.25ZM216.054 147.52L212.754 155.58H211.814L212.894 152.94L210.684 147.52H211.694L213.414 151.96L215.114 147.52H216.054Z" fill="#7B91B0"/>
<rect x="208.27" width="15.2661" height="133" rx="4" fill="#F6C954"/>
<rect x="189.187" y="37.4648" width="15.2661" height="95.5352" rx="4" fill="#3BBE9B"/>
</svg>
